<svg width="40" height="40" fill="none" xmlns="http://www.w3.org/2000/svg"><path d="M30.953 9.106l-5.677-5.679a2 2 0 10-2.839 2.82l4.238 4.239-16.192 16.197-4.238-4.24a1.998 1.998 0 00-3.41 1.42 2 2 0 00.591 1.42l5.618 5.619 5.617 5.619A2.001 2.001 0 1017.5 33.7l-4.178-4.179 16.192-16.197 4.238 4.24a2.001 2.001 0 102.818-2.84l-5.617-5.619zM3.426 30.922a2.007 2.007 0 10-2.838 2.84l5.657 5.658a1.999 1.999 0 001.42.58 2 2 0 001.419-3.42l-5.658-5.658zM39.41 6.247L33.752.588a2.008 2.008 0 10-2.84 2.84l5.658 5.658a1.999 1.999 0 002.839 0 2 2 0 000-2.84z" fill="#fff"/></svg>