<svg width="57" height="62" fill="none" xmlns="http://www.w3.org/2000/svg"><path d="M38.046 26.54v-.324c.012-3.243-1.068-6.404-3.083-9.019-2.014-2.614-4.856-4.545-8.108-5.508h-.12a17.458 17.458 0 00-5.186-.686c-4.18.219-8.116 1.948-11.003 4.835-2.887 2.888-4.509 6.716-4.533 10.702a5.986 5.986 0 00-2.908 2.09A5.534 5.534 0 002 31.936a5.53 5.53 0 001.105 3.305 5.985 5.985 0 002.908 2.09c.412 3.764 2.28 7.249 5.24 9.775 2.96 2.526 6.802 3.914 10.776 3.894h.461c3.844-.177 7.498-1.646 10.312-4.145 2.815-2.498 4.61-5.866 5.064-9.505a6.002 6.002 0 002.964-2.043 5.543 5.543 0 001.17-3.3 5.527 5.527 0 00-1.06-3.335 5.977 5.977 0 00-2.894-2.132zM22.39 47.187c-2.898.08-5.729-.841-7.97-2.593-2.24-1.752-3.74-4.217-4.223-6.94h23.565c-.489 2.578-1.878 4.922-3.943 6.653-2.064 1.73-4.682 2.745-7.43 2.88zm13.654-13.345H8.015c-.53 0-1.04-.2-1.416-.558a1.861 1.861 0 01-.586-1.348c0-.506.211-.99.586-1.349a2.054 2.054 0 011.416-.558h4.004c.531 0 1.04-.2 1.416-.558.375-.358.586-.843.586-1.348 0-.506-.21-.99-.586-1.348a2.054 2.054 0 00-1.416-.559h-2.002c.09-1.977.683-3.905 1.73-5.615a12.496 12.496 0 014.276-4.203v6.006c0 .505.211.99.587 1.348.375.357.884.558 1.415.558s1.04-.201 1.416-.558c.376-.358.587-.843.587-1.348v-7.455a15.381 15.381 0 011.641-.171h.36c.672.009 1.34.066 2.003.171v7.455c0 .505.21.99.586 1.348.376.357.885.558 1.416.558.53 0 1.04-.201 1.415-.558.376-.358.587-.843.587-1.348V16.34a13.3 13.3 0 012.362 1.659 11.435 11.435 0 012.698 3.756c.626 1.411.947 2.928.946 4.46H32.04c-.531 0-1.04.201-1.416.559a1.861 1.861 0 00-.586 1.348c0 .505.21.99.586 1.348.376.357.885.558 1.416.558h4.004c.531 0 1.04.201 1.416.558.375.358.586.843.586 1.349 0 .505-.21.99-.586 1.348a2.054 2.054 0 01-1.416.558z" fill="#fff"/></svg>