<svg width="40" height="40" viewBox="0 0 40 40" fill="none" xmlns="http://www.w3.org/2000/svg">
<path d="M30.9529 9.10631L25.2757 3.42748C25.0898 3.24006 24.8688 3.0913 24.6252 2.98979C24.3816 2.88827 24.1203 2.836 23.8564 2.836C23.5925 2.836 23.3312 2.88827 23.0876 2.98979C22.844 3.0913 22.6229 3.24006 22.4371 3.42748C22.0648 3.80213 21.8558 4.30893 21.8558 4.83719C21.8558 5.36545 22.0648 5.87225 22.4371 6.2469L26.675 10.486L10.483 26.6827L6.2451 22.4436C5.87056 22.0711 5.3639 21.8621 4.83579 21.8621C4.30768 21.8621 3.80103 22.0711 3.42649 22.4436C3.23912 22.6295 3.09041 22.8506 2.98892 23.0943C2.88744 23.338 2.83518 23.5993 2.83518 23.8633C2.83518 24.1273 2.88744 24.3886 2.98892 24.6323C3.09041 24.8759 3.23912 25.0971 3.42649 25.283L9.04371 30.9018L14.6609 36.5207C14.8461 36.7096 15.0669 36.8599 15.3105 36.9629C15.5541 37.0659 15.8157 37.1195 16.0802 37.1206C16.4773 37.1229 16.866 37.0068 17.1969 36.7873C17.5278 36.5677 17.7858 36.2546 17.9381 35.8878C18.0903 35.521 18.1299 35.1171 18.0518 34.7277C17.9737 34.3383 17.7814 33.9809 17.4995 33.7013L13.3216 29.5221L29.5136 13.3254L33.7515 17.5646C33.9379 17.7497 34.1589 17.8963 34.4019 17.996C34.6449 18.0957 34.9052 18.1465 35.1679 18.1456C35.4305 18.1446 35.6904 18.092 35.9327 17.9906C36.175 17.8892 36.395 17.741 36.5801 17.5546C36.7652 17.3681 36.9117 17.1471 37.0114 16.904C37.111 16.6609 37.1618 16.4005 37.1609 16.1378C37.16 15.8751 37.1073 15.6151 37.006 15.3727C36.9046 15.1303 36.7565 14.9103 36.5701 14.7252L30.9529 9.10631ZM3.42649 30.9218C3.05007 30.5453 2.53953 30.3338 2.00719 30.3338C1.47485 30.3338 0.964314 30.5453 0.587892 30.9218C0.211471 31.2984 3.96624e-09 31.809 0 32.3415C-3.96624e-09 32.874 0.211471 33.3847 0.587892 33.7612L6.2451 39.4201C6.43188 39.6054 6.65341 39.752 6.89696 39.8515C7.14051 39.951 7.40131 40.0015 7.66439 40C7.92748 40.0015 8.18827 39.951 8.43183 39.8515C8.67538 39.752 8.8969 39.6054 9.08369 39.4201C9.27106 39.2342 9.41977 39.013 9.52126 38.7694C9.62275 38.5257 9.675 38.2643 9.675 38.0004C9.675 37.7364 9.62275 37.475 9.52126 37.2314C9.41977 36.9877 9.27106 36.7666 9.08369 36.5807L3.42649 30.9218ZM39.4087 6.2469L33.7515 0.588062C33.5651 0.401624 33.3438 0.253732 33.1003 0.152832C32.8568 0.0519324 32.5958 0 32.3322 0C32.0686 0 31.8076 0.0519324 31.5641 0.152832C31.3206 0.253732 31.0993 0.401624 30.9129 0.588062C30.7265 0.774501 30.5787 0.995836 30.4778 1.23943C30.3769 1.48302 30.325 1.74411 30.325 2.00777C30.325 2.27144 30.3769 2.53252 30.4778 2.77611C30.5787 3.01971 30.7265 3.24104 30.9129 3.42748L36.5701 9.08632C36.7559 9.27374 36.977 9.42249 37.2206 9.52401C37.4642 9.62553 37.7255 9.67779 37.9894 9.67779C38.2533 9.67779 38.5146 9.62553 38.7582 9.52401C39.0018 9.42249 39.2229 9.27374 39.4087 9.08632C39.5961 8.90043 39.7448 8.67927 39.8463 8.4356C39.9478 8.19194 40 7.93058 40 7.66661C40 7.40264 39.9478 7.14128 39.8463 6.89761C39.7448 6.65394 39.5961 6.43279 39.4087 6.2469Z" fill="white"/>
</svg>
