<svg width="57" height="62" viewBox="0 0 57 62" fill="none" xmlns="http://www.w3.org/2000/svg">
<path d="M38.046 26.5404V26.2163C38.0582 22.9734 36.9776 19.8122 34.9632 17.1974C32.9488 14.5826 30.1066 12.6521 26.8545 11.6894H26.7344C25.0547 11.2018 23.3047 10.9702 21.5491 11.0031C17.3684 11.2215 13.4329 12.951 10.5457 15.8384C7.65854 18.7258 6.03736 22.5535 6.01305 26.5404C4.83986 26.9334 3.82372 27.6635 3.10489 28.6299C2.38606 29.5963 2 30.7513 2 31.9356C2 33.1198 2.38606 34.2749 3.10489 35.2413C3.82372 36.2077 4.83986 36.9378 6.01305 37.3307C6.42541 41.0955 8.29324 44.5797 11.2534 47.106C14.2136 49.6323 18.0545 51.0202 22.0295 50.9998H22.49C26.3339 50.8226 29.9875 49.3543 32.8024 46.8554C35.6172 44.3565 37.4112 40.9887 37.8659 37.3498C39.0528 36.979 40.0889 36.2651 40.8298 35.3073C41.5706 34.3495 41.9794 33.1956 41.9992 32.0062C42.0191 30.8168 41.6489 29.6511 40.9404 28.6715C40.2318 27.6918 39.2201 26.9469 38.046 26.5404ZM22.3899 47.1869C19.4917 47.2668 16.661 46.3457 14.4201 44.5938C12.1792 42.8419 10.6794 40.3773 10.1974 37.6548H33.7616C33.273 40.2321 31.8836 42.5764 29.8192 44.3068C27.7548 46.0373 25.1366 47.0523 22.3899 47.1869ZM36.044 33.842H8.01511C7.48413 33.842 6.9749 33.6411 6.59944 33.2836C6.22398 32.9261 6.01305 32.4412 6.01305 31.9356C6.01305 31.43 6.22398 30.9451 6.59944 30.5875C6.9749 30.23 7.48413 30.0292 8.01511 30.0292H12.0192C12.5502 30.0292 13.0594 29.8283 13.4349 29.4708C13.8104 29.1132 14.0213 28.6283 14.0213 28.1227C14.0213 27.6171 13.8104 27.1322 13.4349 26.7747C13.0594 26.4172 12.5502 26.2163 12.0192 26.2163H10.0172C10.1068 24.2386 10.7004 22.3114 11.7468 20.6009C12.7932 18.8904 14.2609 17.448 16.0234 16.3982V22.4035C16.0234 22.9091 16.2343 23.394 16.6098 23.7515C16.9852 24.109 17.4944 24.3099 18.0254 24.3099C18.5564 24.3099 19.0656 24.109 19.4411 23.7515C19.8166 23.394 20.0275 22.9091 20.0275 22.4035V14.9494C20.5709 14.8629 21.119 14.8056 21.6692 14.7778H22.0295C22.7005 14.7868 23.3698 14.8441 24.0316 14.9494V22.4035C24.0316 22.9091 24.2425 23.394 24.618 23.7515C24.9935 24.109 25.5027 24.3099 26.0337 24.3099C26.5646 24.3099 27.0739 24.109 27.4493 23.7515C27.8248 23.394 28.0357 22.9091 28.0357 22.4035V16.3411C28.885 16.8093 29.6773 17.3656 30.3982 17.9996C31.5525 19.067 32.4698 20.3444 33.0957 21.7559C33.7217 23.1673 34.0434 24.6842 34.0419 26.2163H32.0399C31.5089 26.2163 30.9996 26.4172 30.6242 26.7747C30.2487 27.1322 30.0378 27.6171 30.0378 28.1227C30.0378 28.6283 30.2487 29.1132 30.6242 29.4708C30.9996 29.8283 31.5089 30.0292 32.0399 30.0292H36.044C36.575 30.0292 37.0842 30.23 37.4596 30.5875C37.8351 30.9451 38.046 31.43 38.046 31.9356C38.046 32.4412 37.8351 32.9261 37.4596 33.2836C37.0842 33.6411 36.575 33.842 36.044 33.842Z" fill="white"/>
</svg>
