<svg width="40" height="40" fill="none" xmlns="http://www.w3.org/2000/svg"><path d="M20.5 20.367a8.2 8.2 0 002.833-6.2 8.333 8.333 0 00-16.666 0 8.2 8.2 0 002.833 6.2A13.334 13.334 0 001.667 32.5 1.667 1.667 0 105 32.5a10 10 0 0120 0 1.667 1.667 0 003.333 0A13.333 13.333 0 0020.5 20.367zm-5.5-1.2a5 5 0 110-10 5 5 0 010 10zm16.233.533A8.333 8.333 0 0025 5.833a1.667 1.667 0 100 3.334 5 5 0 015 5 5.001 5.001 0 01-2.5 4.316 1.666 1.666 0 00-.083 2.834l.65.433.216.117A11.667 11.667 0 0134.95 32.5a1.667 1.667 0 003.333 0 15 15 0 00-7.05-12.8z" fill="#fff"/></svg>